<svg width="120" height="120" viewBox="0 0 120 120" fill="none" xmlns="http://www.w3.org/2000/svg">
<path d="M79.9895 59.957C79.9895 61.363 78.9476 62.4644 77.7667 62.4644H75.5439L75.5925 74.9775C75.5925 75.1884 75.5786 75.3993 75.5578 75.6102V76.8756C75.5578 78.6018 74.3144 80 72.7793 80H71.6679C71.5915 80 71.5151 80 71.4387 79.9922C71.3414 80 71.2442 80 71.1469 80L68.8894 79.9922H67.2223C65.6872 79.9922 64.4438 78.594 64.4438 76.8678V74.9932V69.9941C64.4438 68.6116 63.4505 67.4946 62.221 67.4946H57.7754C56.5459 67.4946 55.5526 68.6116 55.5526 69.9941V74.9932V76.8678C55.5526 78.594 54.3093 79.9922 52.7741 79.9922H51.107H48.8912C48.787 79.9922 48.6828 79.9844 48.5786 79.9766C48.4953 79.9844 48.4119 79.9922 48.3285 79.9922H47.2171C45.682 79.9922 44.4386 78.594 44.4386 76.8678V68.1195C44.4386 68.0492 44.4386 67.9711 44.4456 67.9008V62.4566H42.2228C40.9725 62.4566 40 61.363 40 59.9492C40 59.2462 40.2084 58.6214 40.6946 58.0746L58.4978 40.6249C58.9841 40.0781 59.5398 40 60.026 40C60.5122 40 61.0679 40.1562 61.4847 40.5468L79.2254 58.0824C79.7811 58.6292 80.059 59.2541 79.9895 59.957Z" fill="#930338"/>
<circle cx="60" cy="60" r="59.5" stroke="#930338"/>
</svg>
